<?xml version="1.0" encoding="UTF-8" standalone="no"?>
<!-- Created with Inkscape (http://www.inkscape.org/) -->

<svg
   xmlns:dc="http://purl.org/dc/elements/1.1/"
   xmlns:cc="http://creativecommons.org/ns#"
   xmlns:rdf="http://www.w3.org/1999/02/22-rdf-syntax-ns#"
   xmlns:svg="http://www.w3.org/2000/svg"
   xmlns="http://www.w3.org/2000/svg"
   xmlns:sodipodi="http://sodipodi.sourceforge.net/DTD/sodipodi-0.dtd"
   xmlns:inkscape="http://www.inkscape.org/namespaces/inkscape"
   width="210mm"
   height="297mm"
   viewBox="0 0 744.09448819 1052.3622047"
   id="svg2"
   version="1.1"
   inkscape:version="0.91 r13725"
   sodipodi:docname="drawing.svg">
  <defs
     id="defs4" />
  <sodipodi:namedview
     id="base"
     pagecolor="#ffffff"
     bordercolor="#666666"
     borderopacity="1.0"
     inkscape:pageopacity="0.0"
     inkscape:pageshadow="2"
     inkscape:zoom="0.7"
     inkscape:cx="432.91069"
     inkscape:cy="687.26725"
     inkscape:document-units="px"
     inkscape:current-layer="layer1"
     showgrid="false"
     showguides="true"
     inkscape:guide-bbox="true"
     inkscape:window-width="1440"
     inkscape:window-height="874"
     inkscape:window-x="1366"
     inkscape:window-y="0"
     inkscape:window-maximized="1">
    <sodipodi:guide
       position="916.20837,702.05603"
       orientation="1,0"
       id="guide3375" />
  </sodipodi:namedview>
  <metadata
     id="metadata7">
    <rdf:RDF>
      <cc:Work
         rdf:about="">
        <dc:format>image/svg+xml</dc:format>
        <dc:type
           rdf:resource="http://purl.org/dc/dcmitype/StillImage" />
        <dc:title />
      </cc:Work>
    </rdf:RDF>
  </metadata>
  <g
     inkscape:label="Camada 1"
     inkscape:groupmode="layer"
     id="layer1">
    <g
       id="g4262"
       transform="translate(7.1428571,-7.1428571)">
      <rect
         y="82.915237"
         x="-1.9557353"
         height="256.12848"
         width="734.70789"
         id="rect4204"
         style="fill:#0077d6;fill-opacity:1;stroke:none" />
      <g
         id="g4237">
        <g
           id="g4165"
           transform="translate(48.571428,7.142857)">
          <path
             id="path3390"
             d="M 104.04883,97.068359 A 105.71299,105.71299 0 0 0 -1.6640625,202.7832 105.71299,105.71299 0 0 0 104.04883,308.49609 105.71299,105.71299 0 0 0 175.72461,280.30664 l -24.04883,-26.05078 a 70.193426,70.193426 0 0 1 -2.2832,1.91406 l 5.35742,5.80274 a 80.713079,80.713079 0 0 1 -54.72656,21.52343 80.713079,80.713079 0 0 1 -80.712893,-80.71289 80.713079,80.713079 0 0 1 80.712893,-80.71484 80.713079,80.713079 0 0 1 54.69531,21.46094 l -5.33398,5.77734 a 70.193426,70.193426 0 0 1 2.21679,1.96094 l 24.08203,-26.08985 A 105.71299,105.71299 0 0 0 104.04883,97.068359 Z"
             style="fill:#ffffff;fill-opacity:1"
             inkscape:connector-curvature="0" />
          <g
             style="font-style:normal;font-variant:normal;font-weight:normal;font-stretch:normal;font-size:84.64625549px;line-height:125%;font-family:'Andale Mono';-inkscape-font-specification:'Andale Mono, Normal';text-align:start;letter-spacing:0px;word-spacing:0px;writing-mode:lr-tb;text-anchor:start;fill:#ffffff;fill-opacity:1;stroke:none;stroke-width:1px;stroke-linecap:butt;stroke-linejoin:miter;stroke-opacity:1"
             id="text4208">
            <path
               d="m 168.096,182.04876 q 8.88621,0 14.13527,6.19967 5.24906,6.19968 5.24906,16.32582 0,10.2088 -5.24906,16.44981 -5.24906,6.24101 -14.13527,6.24101 -8.92753,0 -14.17659,-6.19968 -5.20773,-6.24101 -5.20773,-16.49114 0,-10.16747 5.24906,-16.32582 5.24906,-6.19967 14.13526,-6.19967 z m 0,39.59527 q 5.86903,0 9.25819,-4.95975 3.38915,-4.95974 3.38915,-12.02737 0,-7.43961 -3.34782,-12.23403 -3.34783,-4.79442 -9.29952,-4.79442 -5.99302,0 -9.29951,4.75309 -3.3065,4.71175 -3.3065,12.27536 0,7.19163 3.34783,12.11004 3.34782,4.87708 9.25818,4.87708 z"
               style=""
               id="path4274" />
            <path
               d="m 208.80721,188.66174 q 2.14923,-2.97584 5.78637,-4.79441 3.67847,-1.81857 7.72893,-1.81857 7.52227,0 11.69672,6.03435 4.21578,6.03435 4.21578,15.87117 0,9.96082 -4.46376,16.65647 -4.46377,6.65432 -11.94471,6.65432 -4.00913,0 -7.52228,-1.9839 -3.47182,-2.02523 -5.49705,-5.33172 l 0,6.19967 -6.44766,0 0,-58.31829 6.44766,0 0,20.83091 z m 0,6.40634 0,17.8964 q 1.81858,3.63714 4.91841,6.07568 3.09984,2.43854 6.40634,2.43854 5.20773,0 8.26623,-4.95974 3.09984,-4.95974 3.09984,-12.1927 0,-7.43961 -2.93451,-12.0687 -2.93452,-4.6291 -8.18358,-4.6291 -6.81964,0 -11.57273,7.43962 z"
               style=""
               id="path4276" />
            <path
               d="m 287.37779,226.14912 -6.40634,0 q -0.78529,-2.60386 -0.78529,-6.94363 -5.49705,8.05958 -14.96189,8.05958 -4.79441,0 -8.47289,-3.38916 -3.63714,-3.43049 -3.63714,-8.80354 0,-3.1825 1.28127,-5.62104 1.28126,-2.43854 3.76113,-4.09179 2.47987,-1.69458 6.03435,-2.64519 3.55449,-0.99195 8.43157,-1.36393 l 7.23295,-0.57864 0,-2.06656 q 0,-11.07676 -10.33279,-11.07676 -2.43854,0 -6.19968,1.07462 -3.71981,1.03328 -6.40633,2.47987 l -1.69458,-4.6291 q 8.80354,-4.50509 16.36715,-4.50509 14.7139,0 14.7139,15.58185 l 0,18.51637 q 0,5.62104 1.07461,10.00214 z m -7.52228,-12.77133 0,-7.81159 q -8.72088,0.78529 -11.98604,1.48792 -3.22383,0.6613 -5.62104,2.5212 -2.35588,1.8599 -2.35588,5.04241 0,2.89318 2.02523,4.67042 2.02523,1.77724 5.1664,1.77724 3.43049,0 6.81964,-2.02523 3.38916,-2.06656 5.95169,-5.66237 z"
               style=""
               id="path4278" />
            <path
               d="m 333.9167,226.14912 -17.60708,0 0,-52.73858 -11.24209,0 0,-5.57971 17.68975,0 0,52.73858 11.15942,0 0,5.57971 z"
               style=""
               id="path4280" />
            <path
               d="m 388.22586,224.20656 q -6.48899,2.97584 -12.77133,2.97584 -11.5314,0 -11.5314,-12.19269 l 0,-26.32797 -8.26624,0 0,-5.5797 8.26624,0 0,-11.77939 6.28234,0 0,11.77939 14.63124,0 0,5.5797 -14.63124,0 0,24.63339 q 0,3.92646 1.73591,6.11701 1.73591,2.14922 4.71175,2.14922 5.29039,0 10.45679,-2.35587 l 1.11594,5.00107 z"
               style=""
               id="path4282" />
            <path
               d="m 491.51249,222.51198 q -6.86098,4.75309 -15.91251,4.75309 -11.32474,0 -17.2351,-7.77027 -5.86902,-7.77026 -5.86902,-22.48416 0,-14.21792 5.7037,-22.23617 5.7037,-8.05958 17.40042,-8.05958 4.21579,0 8.3489,1.07461 4.13312,1.07461 6.65432,2.85185 l -2.23188,5.33172 q -5.8277,-3.30649 -12.77134,-3.30649 -8.05958,0 -11.98604,5.86903 -3.92646,5.82769 -3.92646,18.47503 0,24.30274 15.9125,24.30274 6.73699,0 13.80462,-4.13312 l 2.10789,5.33172 z"
               style=""
               id="path4284" />
            <path
               d="m 523.37881,182.04876 q 8.8862,0 14.13526,6.19967 5.24906,6.19968 5.24906,16.32582 0,10.2088 -5.24906,16.44981 -5.24906,6.24101 -14.13526,6.24101 -8.92754,0 -14.1766,-6.19968 -5.20772,-6.24101 -5.20772,-16.49114 0,-10.16747 5.24906,-16.32582 5.24906,-6.19967 14.13526,-6.19967 z m 0,39.59527 q 5.86903,0 9.25818,-4.95975 3.38916,-4.95974 3.38916,-12.02737 0,-7.43961 -3.34783,-12.23403 -3.34782,-4.79442 -9.29951,-4.79442 -5.99302,0 -9.29952,4.75309 -3.30649,4.71175 -3.30649,12.27536 0,7.19163 3.34782,12.11004 3.34783,4.87708 9.25819,4.87708 z"
               style=""
               id="path4286" />
            <path
               d="m 591.4926,184.23931 -2.60386,6.19968 q -4.25711,-1.85991 -7.35695,-1.85991 -2.85185,0 -5.57971,1.65325 -2.72786,1.61192 -5.0424,4.67042 -2.27322,3.01718 -2.27322,3.38916 l 0,27.85721 -6.40633,0 0,-43.06708 6.40633,0 0,8.72087 q 5.1664,-9.75415 13.3913,-9.75415 4.87708,0 9.46484,2.19055 z"
               style=""
               id="path4288" />
            <path
               d="m 642.86727,204.82224 -29.55179,0 q 0,7.31561 4.21578,12.0687 4.25711,4.75309 10.41546,4.75309 5.86902,0 12.11003,-2.10789 l 1.11594,5.16639 q -5.7037,2.56254 -13.30864,2.56254 -9.58883,0 -15.45786,-6.15835 -5.86903,-6.15835 -5.86903,-16.61513 0,-10.25014 5.24906,-16.32582 5.2904,-6.11701 13.63929,-6.11701 7.43962,0 12.44069,5.66237 5.00107,5.66237 5.00107,15.08588 l 0,2.02523 z m -7.0263,-5.24906 q 0,-5.04241 -3.14117,-8.4729 -3.14117,-3.47182 -7.0263,-3.47182 -5.00107,0 -8.30757,3.3065 -3.26516,3.30649 -3.63714,8.63822 l 22.11218,0 z"
               style=""
               id="path4290" />
          </g>
          <path
             inkscape:connector-curvature="0"
             style="fill:#ffffff;fill-opacity:1"
             id="path4157"
             d="m 98.816747,129.56899 a 73.213106,73.213106 0 0 0 -73.213367,73.21337 73.213106,73.213106 0 0 0 73.213367,73.21336 73.213106,73.213106 0 0 0 49.640173,-19.52243 l -16.65507,-18.04231 a 48.613503,48.613503 0 0 1 -32.985103,12.96437 48.613503,48.613503 0 0 1 -48.614126,-48.61299 48.613503,48.613503 0 0 1 48.614126,-48.61414 48.613503,48.613503 0 0 1 32.932993,12.9372 l 16.67882,-18.06949 A 73.213106,73.213106 0 0 0 98.816747,129.56899 Z" />
        </g>
        <text
           sodipodi:linespacing="125%"
           id="text4208-5"
           y="271.73218"
           x="275.77756"
           style="font-style:normal;font-variant:normal;font-weight:normal;font-stretch:normal;font-size:22.63241768px;line-height:125%;font-family:'Andale Mono';-inkscape-font-specification:'Andale Mono, Normal';text-align:start;letter-spacing:0px;word-spacing:0px;writing-mode:lr-tb;text-anchor:start;fill:#ffffff;fill-opacity:1;stroke:none;stroke-width:1px;stroke-linecap:butt;stroke-linejoin:miter;stroke-opacity:1"
           xml:space="preserve"><tspan
             y="271.73218"
             x="275.77756"
             id="tspan4210-2"
             sodipodi:role="line">learn once, write anywhere</tspan></text>
      </g>
    </g>
    <g
       id="g4246"
       transform="translate(0.28571414,295.71429)"
       style="fill:#0077d6;fill-opacity:1">
      <g
         id="g4248"
         transform="translate(48.571428,7.142857)"
         style="fill:#0077d6;fill-opacity:1">
        <path
           id="path4250"
           d="M 104.04883,97.068359 A 105.71299,105.71299 0 0 0 -1.6640625,202.7832 105.71299,105.71299 0 0 0 104.04883,308.49609 105.71299,105.71299 0 0 0 175.72461,280.30664 l -24.04883,-26.05078 a 70.193426,70.193426 0 0 1 -2.2832,1.91406 l 5.35742,5.80274 a 80.713079,80.713079 0 0 1 -54.72656,21.52343 80.713079,80.713079 0 0 1 -80.712893,-80.71289 80.713079,80.713079 0 0 1 80.712893,-80.71484 80.713079,80.713079 0 0 1 54.69531,21.46094 l -5.33398,5.77734 a 70.193426,70.193426 0 0 1 2.21679,1.96094 l 24.08203,-26.08985 A 105.71299,105.71299 0 0 0 104.04883,97.068359 Z"
           style="fill:#0077d6;fill-opacity:1"
           inkscape:connector-curvature="0" />
        <g
           style="font-style:normal;font-variant:normal;font-weight:normal;font-stretch:normal;font-size:84.64625549px;line-height:125%;font-family:'Andale Mono';-inkscape-font-specification:'Andale Mono, Normal';text-align:start;letter-spacing:0px;word-spacing:0px;writing-mode:lr-tb;text-anchor:start;fill:#0077d6;fill-opacity:1;stroke:none;stroke-width:1px;stroke-linecap:butt;stroke-linejoin:miter;stroke-opacity:1"
           id="text4252">
          <path
             d="m 168.096,182.04876 q 8.88621,0 14.13527,6.19967 5.24906,6.19968 5.24906,16.32582 0,10.2088 -5.24906,16.44981 -5.24906,6.24101 -14.13527,6.24101 -8.92753,0 -14.17659,-6.19968 -5.20773,-6.24101 -5.20773,-16.49114 0,-10.16747 5.24906,-16.32582 5.24906,-6.19967 14.13526,-6.19967 z m 0,39.59527 q 5.86903,0 9.25819,-4.95975 3.38915,-4.95974 3.38915,-12.02737 0,-7.43961 -3.34782,-12.23403 -3.34783,-4.79442 -9.29952,-4.79442 -5.99302,0 -9.29951,4.75309 -3.3065,4.71175 -3.3065,12.27536 0,7.19163 3.34783,12.11004 3.34782,4.87708 9.25818,4.87708 z"
             style=""
             id="path4293" />
          <path
             d="m 208.80721,188.66174 q 2.14923,-2.97584 5.78637,-4.79441 3.67847,-1.81857 7.72893,-1.81857 7.52227,0 11.69672,6.03435 4.21578,6.03435 4.21578,15.87117 0,9.96082 -4.46376,16.65647 -4.46377,6.65432 -11.94471,6.65432 -4.00913,0 -7.52228,-1.9839 -3.47182,-2.02523 -5.49705,-5.33172 l 0,6.19967 -6.44766,0 0,-58.31829 6.44766,0 0,20.83091 z m 0,6.40634 0,17.8964 q 1.81858,3.63714 4.91841,6.07568 3.09984,2.43854 6.40634,2.43854 5.20773,0 8.26623,-4.95974 3.09984,-4.95974 3.09984,-12.1927 0,-7.43961 -2.93451,-12.0687 -2.93452,-4.6291 -8.18358,-4.6291 -6.81964,0 -11.57273,7.43962 z"
             style=""
             id="path4295" />
          <path
             d="m 287.37779,226.14912 -6.40634,0 q -0.78529,-2.60386 -0.78529,-6.94363 -5.49705,8.05958 -14.96189,8.05958 -4.79441,0 -8.47289,-3.38916 -3.63714,-3.43049 -3.63714,-8.80354 0,-3.1825 1.28127,-5.62104 1.28126,-2.43854 3.76113,-4.09179 2.47987,-1.69458 6.03435,-2.64519 3.55449,-0.99195 8.43157,-1.36393 l 7.23295,-0.57864 0,-2.06656 q 0,-11.07676 -10.33279,-11.07676 -2.43854,0 -6.19968,1.07462 -3.71981,1.03328 -6.40633,2.47987 l -1.69458,-4.6291 q 8.80354,-4.50509 16.36715,-4.50509 14.7139,0 14.7139,15.58185 l 0,18.51637 q 0,5.62104 1.07461,10.00214 z m -7.52228,-12.77133 0,-7.81159 q -8.72088,0.78529 -11.98604,1.48792 -3.22383,0.6613 -5.62104,2.5212 -2.35588,1.8599 -2.35588,5.04241 0,2.89318 2.02523,4.67042 2.02523,1.77724 5.1664,1.77724 3.43049,0 6.81964,-2.02523 3.38916,-2.06656 5.95169,-5.66237 z"
             style=""
             id="path4297" />
          <path
             d="m 333.9167,226.14912 -17.60708,0 0,-52.73858 -11.24209,0 0,-5.57971 17.68975,0 0,52.73858 11.15942,0 0,5.57971 z"
             style=""
             id="path4299" />
          <path
             d="m 388.22586,224.20656 q -6.48899,2.97584 -12.77133,2.97584 -11.5314,0 -11.5314,-12.19269 l 0,-26.32797 -8.26624,0 0,-5.5797 8.26624,0 0,-11.77939 6.28234,0 0,11.77939 14.63124,0 0,5.5797 -14.63124,0 0,24.63339 q 0,3.92646 1.73591,6.11701 1.73591,2.14922 4.71175,2.14922 5.29039,0 10.45679,-2.35587 l 1.11594,5.00107 z"
             style=""
             id="path4301" />
          <path
             d="m 491.51249,222.51198 q -6.86098,4.75309 -15.91251,4.75309 -11.32474,0 -17.2351,-7.77027 -5.86902,-7.77026 -5.86902,-22.48416 0,-14.21792 5.7037,-22.23617 5.7037,-8.05958 17.40042,-8.05958 4.21579,0 8.3489,1.07461 4.13312,1.07461 6.65432,2.85185 l -2.23188,5.33172 q -5.8277,-3.30649 -12.77134,-3.30649 -8.05958,0 -11.98604,5.86903 -3.92646,5.82769 -3.92646,18.47503 0,24.30274 15.9125,24.30274 6.73699,0 13.80462,-4.13312 l 2.10789,5.33172 z"
             style=""
             id="path4303" />
          <path
             d="m 523.37881,182.04876 q 8.8862,0 14.13526,6.19967 5.24906,6.19968 5.24906,16.32582 0,10.2088 -5.24906,16.44981 -5.24906,6.24101 -14.13526,6.24101 -8.92754,0 -14.1766,-6.19968 -5.20772,-6.24101 -5.20772,-16.49114 0,-10.16747 5.24906,-16.32582 5.24906,-6.19967 14.13526,-6.19967 z m 0,39.59527 q 5.86903,0 9.25818,-4.95975 3.38916,-4.95974 3.38916,-12.02737 0,-7.43961 -3.34783,-12.23403 -3.34782,-4.79442 -9.29951,-4.79442 -5.99302,0 -9.29952,4.75309 -3.30649,4.71175 -3.30649,12.27536 0,7.19163 3.34782,12.11004 3.34783,4.87708 9.25819,4.87708 z"
             style=""
             id="path4305" />
          <path
             d="m 591.4926,184.23931 -2.60386,6.19968 q -4.25711,-1.85991 -7.35695,-1.85991 -2.85185,0 -5.57971,1.65325 -2.72786,1.61192 -5.0424,4.67042 -2.27322,3.01718 -2.27322,3.38916 l 0,27.85721 -6.40633,0 0,-43.06708 6.40633,0 0,8.72087 q 5.1664,-9.75415 13.3913,-9.75415 4.87708,0 9.46484,2.19055 z"
             style=""
             id="path4307" />
          <path
             d="m 642.86727,204.82224 -29.55179,0 q 0,7.31561 4.21578,12.0687 4.25711,4.75309 10.41546,4.75309 5.86902,0 12.11003,-2.10789 l 1.11594,5.16639 q -5.7037,2.56254 -13.30864,2.56254 -9.58883,0 -15.45786,-6.15835 -5.86903,-6.15835 -5.86903,-16.61513 0,-10.25014 5.24906,-16.32582 5.2904,-6.11701 13.63929,-6.11701 7.43962,0 12.44069,5.66237 5.00107,5.66237 5.00107,15.08588 l 0,2.02523 z m -7.0263,-5.24906 q 0,-5.04241 -3.14117,-8.4729 -3.14117,-3.47182 -7.0263,-3.47182 -5.00107,0 -8.30757,3.3065 -3.26516,3.30649 -3.63714,8.63822 l 22.11218,0 z"
             style=""
             id="path4309" />
        </g>
        <path
           inkscape:connector-curvature="0"
           style="fill:#0077d6;fill-opacity:1"
           id="path4256"
           d="m 98.816747,129.56899 a 73.213106,73.213106 0 0 0 -73.213367,73.21337 73.213106,73.213106 0 0 0 73.213367,73.21336 73.213106,73.213106 0 0 0 49.640173,-19.52243 l -16.65507,-18.04231 a 48.613503,48.613503 0 0 1 -32.985103,12.96437 48.613503,48.613503 0 0 1 -48.614126,-48.61299 48.613503,48.613503 0 0 1 48.614126,-48.61414 48.613503,48.613503 0 0 1 32.932993,12.9372 l 16.67882,-18.06949 A 73.213106,73.213106 0 0 0 98.816747,129.56899 Z" />
      </g>
      <text
         sodipodi:linespacing="125%"
         id="text4258"
         y="271.73218"
         x="275.77756"
         style="font-style:normal;font-variant:normal;font-weight:normal;font-stretch:normal;font-size:22.63241768px;line-height:125%;font-family:'Andale Mono';-inkscape-font-specification:'Andale Mono, Normal';text-align:start;letter-spacing:0px;word-spacing:0px;writing-mode:lr-tb;text-anchor:start;fill:#0077d6;fill-opacity:1;stroke:none;stroke-width:1px;stroke-linecap:butt;stroke-linejoin:miter;stroke-opacity:1"
         xml:space="preserve"><tspan
           y="271.73218"
           x="275.77756"
           id="tspan4260"
           sodipodi:role="line">learn once, write anywhere</tspan></text>
    </g>
  </g>
</svg>
