<?xml version="1.0" encoding="UTF-8" standalone="no"?>
<!-- Created with Inkscape (http://www.inkscape.org/) -->

<svg
   xmlns:dc="http://purl.org/dc/elements/1.1/"
   xmlns:cc="http://creativecommons.org/ns#"
   xmlns:rdf="http://www.w3.org/1999/02/22-rdf-syntax-ns#"
   xmlns:svg="http://www.w3.org/2000/svg"
   xmlns="http://www.w3.org/2000/svg"
   xmlns:sodipodi="http://sodipodi.sourceforge.net/DTD/sodipodi-0.dtd"
   xmlns:inkscape="http://www.inkscape.org/namespaces/inkscape"
   width="210mm"
   height="297mm"
   viewBox="0 0 744.09448819 1052.3622047"
   id="svg2"
   version="1.1"
   inkscape:version="0.91 r13725"
   sodipodi:docname="drawing.svg">
  <defs
     id="defs4" />
  <sodipodi:namedview
     id="base"
     pagecolor="#ffffff"
     bordercolor="#666666"
     borderopacity="1.0"
     inkscape:pageopacity="0.0"
     inkscape:pageshadow="2"
     inkscape:zoom="0.7"
     inkscape:cx="647.67875"
     inkscape:cy="963.93253"
     inkscape:document-units="px"
     inkscape:current-layer="layer1"
     showgrid="false"
     showguides="true"
     inkscape:guide-bbox="true"
     inkscape:window-width="1366"
     inkscape:window-height="694"
     inkscape:window-x="0"
     inkscape:window-y="24"
     inkscape:window-maximized="1">
    <sodipodi:guide
       position="916.20837,702.05603"
       orientation="1,0"
       id="guide3375" />
    <sodipodi:guide
       position="916.20837,584.87834"
       orientation="0,1"
       id="guide3377" />
  </sodipodi:namedview>
  <metadata
     id="metadata7">
    <rdf:RDF>
      <cc:Work
         rdf:about="">
        <dc:format>image/svg+xml</dc:format>
        <dc:type
           rdf:resource="http://purl.org/dc/dcmitype/StillImage" />
        <dc:title></dc:title>
      </cc:Work>
    </rdf:RDF>
  </metadata>
  <g
     inkscape:label="Camada 1"
     inkscape:groupmode="layer"
     id="layer1">
    <rect
       style="fill:#00588a;fill-opacity:1;stroke:none"
       id="rect4204"
       width="634.70795"
       height="268.9856"
       x="-33.384304"
       y="60.058098" />
    <path
       inkscape:connector-curvature="0"
       style="fill:#ffffff;fill-opacity:1"
       id="path3390"
       d="M 104.04892,97.068986 A 105.71299,105.71299 0 0 0 -1.664453,202.78236 105.71299,105.71299 0 0 0 104.04892,308.49572 a 105.71299,105.71299 0 0 0 71.67582,-28.1886 l -24.04838,-26.05141 a 70.193426,70.193426 0 0 1 -47.62744,18.71934 70.193426,70.193426 0 0 1 -70.194333,-70.19269 70.193426,70.193426 0 0 1 70.194333,-70.19434 70.193426,70.193426 0 0 1 47.55221,18.68012 L 175.6838,125.17746 A 105.71299,105.71299 0 0 0 104.04892,97.068986 Z" />
    <path
       d="m 96.814217,124.33533 a 78.446748,78.446748 0 0 0 -78.44703,78.44703 78.446748,78.446748 0 0 0 78.44703,78.44702 78.446748,78.446748 0 0 0 53.188683,-20.918 l -17.84565,-19.33204 a 52.088641,52.088641 0 0 1 -35.343033,13.89111 52.088641,52.088641 0 0 1 -52.08932,-52.08809 52.088641,52.088641 0 0 1 52.08932,-52.08932 52.088641,52.088641 0 0 1 35.287203,13.86202 l 17.8711,-19.3612 A 78.446748,78.446748 0 0 0 96.814217,124.33533 Z"
       id="path4206"
       style="fill:#ffffff;fill-opacity:1;stroke:#00588a;stroke-width:3.78299999;stroke-linecap:round;stroke-linejoin:round;stroke-miterlimit:4;stroke-dasharray:none;stroke-opacity:1"
       inkscape:connector-curvature="0" />
    <text
       xml:space="preserve"
       style="font-style:normal;font-weight:normal;font-size:84.64582825px;line-height:125%;font-family:sans-serif;letter-spacing:0px;word-spacing:0px;fill:#ffffff;fill-opacity:1;stroke:none;stroke-width:1px;stroke-linecap:butt;stroke-linejoin:miter;stroke-opacity:1"
       x="142.71866"
       y="226.14912"
       id="text4208"
       sodipodi:linespacing="125%"><tspan
         sodipodi:role="line"
         id="tspan4210"
         x="142.71866"
         y="226.14912">obalt Core</tspan></text>
  </g>
</svg>
